<svg width="85" height="17" viewBox="0 0 85 17" fill="none" xmlns="http://www.w3.org/2000/svg">
<g clip-path="url(#clip0_20_1158)">
<path d="M69.4625 3.42142C70.4042 3.42142 71.1675 2.66885 71.1675 1.7405C71.1675 0.812146 70.4042 0.0595703 69.4625 0.0595703C68.5208 0.0595703 67.7574 0.812146 67.7574 1.7405C67.7574 2.66885 68.5208 3.42142 69.4625 3.42142Z" fill="white"/>
<path d="M53.2165 4.95898H50.3228V16.6062H53.2165V4.95898Z" fill="white"/>
<path d="M70.9034 4.95898H68.0096V16.6062H70.9034V4.95898Z" fill="white"/>
<path d="M51.7757 0C50.623 0 50.0706 0.870266 50.0706 1.74053C50.0706 2.6108 50.6109 3.4453 51.7757 3.4453C52.9404 3.4453 53.4687 2.59888 53.4807 1.74053C53.4807 1.53787 53.4567 1.3352 53.3967 1.14446L52.8683 1.669V1.75245C52.8683 2.30084 52.5681 2.87307 51.7877 2.87307C51.0072 2.87307 50.707 2.30084 50.695 1.75245C50.683 1.20407 51.0072 0.57223 51.7877 0.57223C52.1599 0.57223 52.4361 0.715287 52.6042 0.929874L53.0244 0.500701C52.7483 0.202665 52.328 0 51.7877 0L51.7757 0Z" fill="white"/>
<path d="M53.0725 0.548828C52.8443 0.775336 52.6282 0.989922 52.412 1.21643C52.1839 1.44294 51.9678 1.65752 51.7396 1.88403L51.1393 1.28796L50.731 1.69329L51.7396 2.69469L53.3726 1.07337C53.3006 0.882629 53.2045 0.703807 53.0725 0.56075V0.548828Z" fill="white"/>
<path d="M2.18534 2.05019V5.04248H0V7.51022H2.18534V12.5172C2.18534 15.4141 3.84235 16.8447 6.3759 16.7494C7.25244 16.7255 7.93686 16.5824 8.76536 16.2486L7.96087 13.8048C7.52861 14.0193 7.01229 14.1505 6.56802 14.1505C5.66747 14.1505 5.05509 13.614 5.05509 12.5053V7.4983H8.29708V5.03056H5.07911V1.74023L2.18534 2.05019Z" fill="white"/>
<path d="M19.6201 6.60449C18.9597 5.44811 17.4587 4.7209 15.8978 4.7209C12.4877 4.69706 9.81006 6.79524 9.81006 10.7889C9.81006 14.7826 12.3676 16.9762 15.8257 16.9523C17.1345 16.9285 18.9476 16.2728 19.6201 14.9018L19.7641 16.5947H22.4898V5.00702H19.7161L19.6201 6.60449ZM16.1619 7.28402C20.7127 7.28402 20.7127 14.3177 16.1619 14.3177C14.2408 14.3177 12.7038 12.9944 12.7038 10.7889C12.7038 8.58346 14.2408 7.28402 16.1619 7.28402Z" fill="white"/>
<path d="M34.1609 6.21149C32.816 5.03127 31.4352 4.68555 29.6101 4.68555C27.4728 4.68555 24.6871 5.62734 24.6871 8.30967C24.6871 10.992 27.3167 11.7431 29.526 11.91C31.183 12.0053 31.8434 12.3391 31.8434 13.1379C31.8434 13.9843 30.8228 14.5446 29.7301 14.5208C28.4213 14.4969 26.5242 13.8174 25.6957 12.8994L24.2788 14.9499C25.9839 16.7143 27.833 17.0243 29.6821 17.0243C33.0202 17.0243 34.7012 15.2599 34.7012 13.2094C34.7012 10.1337 31.9035 9.63295 29.7061 9.48989C28.2172 9.39452 27.5208 8.97727 27.5208 8.2143C27.5208 7.45133 28.2773 7.05792 29.6581 7.05792C30.7748 7.05792 31.7234 7.32019 32.5519 8.09508L34.1609 6.21149Z" fill="white"/>
<path d="M36.5504 0.142781V16.6063H39.4441V10.6814C39.4441 8.94082 40.6328 7.49832 42.3379 7.49832C43.8748 7.49832 44.9915 8.39243 44.9915 10.5025V16.5944H47.8853V10.4787C47.8853 7.06915 46.4204 4.82791 43.0944 4.82791C41.7615 4.82791 40.4888 5.23324 39.4441 6.56845V0.130859H36.5504V0.142781Z" fill="white"/>
<path d="M55.7381 0.166992V16.6067H58.6319V11.3612L63.2067 16.6067H66.6888V16.3921L61.2615 10.4671L66.0284 5.17401V5.0071H62.5703L58.6439 9.65647V0.166992H55.7501H55.7381Z" fill="white"/>
<path d="M85 16.6065V10.5147C85 6.86669 82.8027 4.82812 80.053 4.82812C78.5881 4.82812 77.3994 5.41228 76.2106 6.56866L76.0185 4.99503H73.437V16.6184H76.3067V10.6935C76.3067 8.92911 77.5194 7.45085 79.2965 7.45085C81.0736 7.45085 82.1183 8.78605 82.1183 10.5504V16.6184H85.012L85 16.6065Z" fill="white"/>
</g>
<defs>
<clipPath id="clip0_20_1158">
<rect width="85" height="17" fill="white"/>
</clipPath>
</defs>
</svg>
