<svg height="47" viewBox="0 0 47 47" width="47" xmlns="http://www.w3.org/2000/svg" xmlns:xlink="http://www.w3.org/1999/xlink"><linearGradient id="a" gradientUnits="objectBoundingBox" x1=".5" x2=".816" y2="1"><stop offset="0" stop-color="#3763eb"/><stop offset="1" stop-color="#6f58e8"/></linearGradient><clipPath id="b"><path d="m0 0h47v47h-47z" transform="translate(1116 3817.246)"/></clipPath><g clip-path="url(#b)" transform="translate(-1116 -3817.246)"><path d="m10.75 21.888v3.729h9.316v20.066h-20.066v-20.066-3.729c0-7.572 2.179-13.194 6.476-16.712a17.149 17.149 0 0 1 11.184-3.668v10.749c-2.415 0-6.91 0-6.91 9.631zm33.168-9.631v-10.749a17.149 17.149 0 0 0 -11.183 3.668c-4.3 3.518-6.476 9.141-6.476 16.712v3.729 20.066h20.065v-20.066h-9.316v-3.729c0-9.631 4.492-9.631 6.91-9.631z" fill="url(#a)" transform="translate(1116 3817.488)"/></g></svg>